<?xml version="1.0" encoding="UTF-8"?>
<!-- Created with Inkscape (http://www.inkscape.org/) -->
<svg width="512" height="512" version="1.1" viewBox="0 0 135.47 135.47" xmlns="http://www.w3.org/2000/svg" xmlns:xlink="http://www.w3.org/1999/xlink">
 <defs>
  <clipPath id="clipPath1773">
   <path d="m-21.384-57.438a32.41 17.508 59.936 0 0 6.396-2.5445 32.41 17.508 59.936 0 0-4.7408-38.82 32.41 17.508 59.936 0 0-31.048-14.848 32.41 17.508 59.936 0 0 4.7408 38.82 32.41 17.508 59.936 0 0 24.652 17.393zm-7.1334-12.972a18.792 10.983 61.133 0 1-15.079-11.167 18.792 10.983 61.133 0 1-0.39067-22.291 18.792 10.983 61.133 0 1 18.695 10.052 18.792 10.983 61.133 0 1 0.39067 22.291 18.792 10.983 61.133 0 1-3.6158 1.1157zm-83.27 12.609a17.323 32.271 29.505 0 0 24.317-17.371 17.323 32.271 29.505 0 0 4.6762-38.772 17.323 32.271 29.505 0 0-30.626 14.83 17.323 32.271 29.505 0 0-4.6762 38.772 17.323 32.271 29.505 0 0 6.3092 2.5409zm7.0368-12.956a10.864 18.716 28.261 0 1-3.5667-1.1136 10.864 18.716 28.261 0 1 0.38499-22.263 10.864 18.716 28.261 0 1 18.441-10.039 10.864 18.716 28.261 0 1-0.3855 22.263 10.864 18.716 28.261 0 1-14.874 11.153z" display="none" fill="#fff"/>
   <path class="powerclip" d="m-136.49-137.93h139.04v139.04h-139.04zm115.11 80.494a32.41 17.508 59.936 0 0 6.396-2.5445 32.41 17.508 59.936 0 0-4.7408-38.82 32.41 17.508 59.936 0 0-31.048-14.848 32.41 17.508 59.936 0 0 4.7408 38.82 32.41 17.508 59.936 0 0 24.652 17.393zm-7.1334-12.972a18.792 10.983 61.133 0 0 3.6158-1.1157 18.792 10.983 61.133 0 0-0.39067-22.291 18.792 10.983 61.133 0 0-18.695-10.052 18.792 10.983 61.133 0 0 0.39067 22.291 18.792 10.983 61.133 0 0 15.079 11.167zm-83.27 12.609a17.323 32.271 29.505 0 0 24.317-17.371 17.323 32.271 29.505 0 0 4.6762-38.772 17.323 32.271 29.505 0 0-30.626 14.83 17.323 32.271 29.505 0 0-4.6762 38.772 17.323 32.271 29.505 0 0 6.3092 2.5409zm7.0368-12.956a10.864 18.716 28.261 0 0 14.874-11.153 10.864 18.716 28.261 0 0 0.3855-22.263 10.864 18.716 28.261 0 0-18.441 10.039 10.864 18.716 28.261 0 0-0.38499 22.263 10.864 18.716 28.261 0 0 3.5667 1.1136z" fill="#fff"/>
  </clipPath>
 </defs>
 <path transform="scale(-1)" d="m-2.4505-68.41a64.522 64.522 0 0 1-64.522 64.522 64.522 64.522 0 0 1-64.522-64.522 64.522 64.522 0 0 1 64.522-64.522 64.522 64.522 0 0 1 64.522 64.522z" clip-path="url(#clipPath1773)" fill="#ef5552" stop-color="#000000" stroke-width=".33454"/>
</svg>
