<?xml version="1.0" encoding="UTF-8"?>
<!-- Created with Inkscape (http://www.inkscape.org/) -->
<svg width="512" height="768" version="1.1" viewBox="0 0 135.47 203.21" xmlns="http://www.w3.org/2000/svg">
 <defs>
  <clipPath id="clipPath1773-3">
   <path d="m-21.384-57.438a32.41 17.508 59.936 0 0 6.396-2.5445 32.41 17.508 59.936 0 0-4.7408-38.82 32.41 17.508 59.936 0 0-31.048-14.848 32.41 17.508 59.936 0 0 4.7408 38.82 32.41 17.508 59.936 0 0 24.652 17.393zm-7.1334-12.972a18.792 10.983 61.133 0 1-15.079-11.167 18.792 10.983 61.133 0 1-0.39067-22.291 18.792 10.983 61.133 0 1 18.695 10.052 18.792 10.983 61.133 0 1 0.39067 22.291 18.792 10.983 61.133 0 1-3.6158 1.1157zm-83.27 12.609a17.323 32.271 29.505 0 0 24.317-17.371 17.323 32.271 29.505 0 0 4.6762-38.772 17.323 32.271 29.505 0 0-30.626 14.83 17.323 32.271 29.505 0 0-4.6762 38.772 17.323 32.271 29.505 0 0 6.3092 2.5409zm7.0368-12.956a10.864 18.716 28.261 0 1-3.5667-1.1136 10.864 18.716 28.261 0 1 0.38499-22.263 10.864 18.716 28.261 0 1 18.441-10.039 10.864 18.716 28.261 0 1-0.3855 22.263 10.864 18.716 28.261 0 1-14.874 11.153z" display="none" fill="#fff"/>
   <path class="powerclip" d="m-136.49-137.93h139.04v139.04h-139.04zm115.11 80.494a32.41 17.508 59.936 0 0 6.396-2.5445 32.41 17.508 59.936 0 0-4.7408-38.82 32.41 17.508 59.936 0 0-31.048-14.848 32.41 17.508 59.936 0 0 4.7408 38.82 32.41 17.508 59.936 0 0 24.652 17.393zm-7.1334-12.972a18.792 10.983 61.133 0 0 3.6158-1.1157 18.792 10.983 61.133 0 0-0.39067-22.291 18.792 10.983 61.133 0 0-18.695-10.052 18.792 10.983 61.133 0 0 0.39067 22.291 18.792 10.983 61.133 0 0 15.079 11.167zm-83.27 12.609a17.323 32.271 29.505 0 0 24.317-17.371 17.323 32.271 29.505 0 0 4.6762-38.772 17.323 32.271 29.505 0 0-30.626 14.83 17.323 32.271 29.505 0 0-4.6762 38.772 17.323 32.271 29.505 0 0 6.3092 2.5409zm7.0368-12.956a10.864 18.716 28.261 0 0 14.874-11.153 10.864 18.716 28.261 0 0 0.3855-22.263 10.864 18.716 28.261 0 0-18.441 10.039 10.864 18.716 28.261 0 0-0.38499 22.263 10.864 18.716 28.261 0 0 3.5667 1.1136z" fill="#fff"/>
  </clipPath>
 </defs>
 <g fill="#ef5552">
  <g stop-color="#000000" stroke-width=".52918" aria-label="Doxide">
   <path d="m7.1589 170.23v-30.097h8.4131q5.6225 0 9.2192 3.7414 3.6174 3.7414 3.6174 9.922v2.7699q0 6.2013-3.6174 9.9427-3.5967 3.7208-9.4053 3.7208zm2.5425-27.926v25.777h5.6845q4.837 0 7.6689-3.1833 2.8319-3.204 2.8319-8.3304v-2.8112q0-5.2091-2.8319-8.3304-2.8319-3.1213-7.4829-3.1213z"/>
   <path d="m32.956 158.71q0-4.8783 2.7286-8.0616 2.7286-3.204 7.2348-3.204 4.5269 0 7.2348 3.142 2.7079 3.1213 2.7699 7.917v0.86818q0 4.899-2.7286 8.0823-2.7079 3.1833-7.2348 3.1833-4.5476 0-7.2762-3.1833-2.7286-3.1833-2.7286-8.0823zm2.4805 0.66147q0 3.7001 1.9224 6.4286 1.9431 2.7286 5.6018 2.7286 3.6174 0 5.5398-2.7286 1.9431-2.7286 1.9431-6.4286v-0.66147q0-3.6174-1.9431-6.3873-1.9431-2.7699-5.5811-2.7699-3.6174 0-5.5605 2.7699-1.9224 2.7699-1.9224 6.408z"/>
   <path d="m58.609 147.86 6.0152 9.0538 6.0566-9.0538h2.9353l-7.5862 10.976 7.8963 11.39h-2.8939l-6.3873-9.4673-6.346 9.4673h-2.9353l7.917-11.39-7.5862-10.976z"/>
   <path d="m78.06 141.39q0-1.6743 1.695-1.6743 1.7157 0 1.7157 1.6743 0 1.633-1.7157 1.633-1.695 0-1.695-1.633zm2.9146 6.47v22.366h-2.4598v-22.366z"/>
   <path d="m102.43 170.23-0.12402-2.9973q-2.3565 3.4107-6.9868 3.4107-3.9481 0-6.2633-3.1833-2.3151-3.1833-2.3151-8.1857v-0.43409q0-5.2091 2.3151-8.289 2.3151-3.1006 6.3046-3.1006 4.5476 0 6.9041 3.5347v-12.506h2.4805v31.75zm-13.209-10.956q0 3.9068 1.5917 6.5733 1.6123 2.6459 4.9817 2.6459 2.5218 0 4.0722-1.1369 1.571-1.1576 2.3978-2.8939v-10.563q-0.72348-1.695-2.2324-2.9973-1.509-1.3023-4.1962-1.3023-3.4107 0-5.023 2.6665-1.5917 2.6666-1.5917 6.5734z"/>
   <path d="m127.84 166.67q-1.0956 1.633-3.018 2.8112-1.9224 1.1576-4.9197 1.1576-4.3616 0-7.1935-3.08-2.8319-3.08-2.8319-7.8963v-0.88885q0-5.1677 2.8732-8.2477 2.8939-3.08 6.718-3.08 4.2582 0 6.5527 2.8939 2.2945 2.8732 2.2945 7.3382v1.509h-15.958v0.47543q0 3.7001 2.1084 6.3046 2.1291 2.5839 5.5398 2.5839 3.9481 0 6.2633-3.0593zm-8.3717-17.116q-2.8319 0-4.7336 2.0671-1.881 2.0671-2.2738 5.4571h13.374v-0.26872q-0.062-2.8112-1.6537-5.023-1.571-2.2325-4.713-2.2325z"/>
  </g>
  <g stop-color="#000000" stroke-width=".52918" aria-label="Modern Docs for Modern C++">
   <path d="m11.892 189.19 2.4096-5.7507h0.73452v6.5211h-0.55089v-2.844l0.04927-2.9157-2.432 5.7597h-0.42549l-2.4185-5.7373 0.049266 2.8754v2.8619h-0.55089v-6.5211h0.72556z"/>
   <path d="m16.272 187.47q0-1.057 0.5912-1.7467 0.5912-0.69421 1.5676-0.69421 0.98085 0 1.5676 0.68077 0.58672 0.67629 0.60015 1.7154v0.1881q0 1.0615-0.5912 1.7512-0.58672 0.68973-1.5676 0.68973-0.98533 0-1.5765-0.68973-0.5912-0.68973-0.5912-1.7512zm0.53745 0.14332q0 0.8017 0.41652 1.3929 0.421 0.59119 1.2137 0.59119 0.78378 0 1.2003-0.59119 0.421-0.5912 0.421-1.3929v-0.14332q0-0.78378-0.421-1.3839-0.421-0.60016-1.2093-0.60016-0.78378 0-1.2048 0.60016-0.41652 0.60015-0.41652 1.3884z"/>
   <path d="m24.893 189.96-0.02687-0.64942q-0.51058 0.739-1.5138 0.739-0.85544 0-1.3571-0.68973t-0.50162-1.7736v-0.0941q0-1.1286 0.50162-1.796 0.50162-0.67181 1.366-0.67181 0.98533 0 1.4959 0.76587v-2.7096h0.53745v6.8794zm-2.8619-2.3737q0 0.84648 0.34486 1.4242 0.34934 0.57329 1.0794 0.57329 0.54641 0 0.88232-0.24634 0.34039-0.25081 0.51954-0.62702v-2.2886q-0.15676-0.36726-0.48371-0.64942-0.32695-0.28216-0.90919-0.28216-0.739 0-1.0883 0.57776-0.34486 0.57776-0.34486 1.4242z"/>
   <path d="m30.398 189.19q-0.23738 0.35382-0.6539 0.60911-0.41652 0.25081-1.0659 0.25081-0.94502 0-1.5586-0.66734-0.61359-0.66733-0.61359-1.7109v-0.19259q0-1.1197 0.62255-1.787 0.62703-0.66733 1.4556-0.66733 0.92262 0 1.4198 0.62703 0.49714 0.62254 0.49714 1.59v0.32695h-3.4576v0.10302q0 0.80169 0.45683 1.366 0.46131 0.55984 1.2003 0.55984 0.85544 0 1.3571-0.66285zm-1.8139-3.7084q-0.61359 0-1.0256 0.44788-0.40757 0.44787-0.49266 1.1824h2.8978v-0.0582q-0.01344-0.60911-0.3583-1.0883-0.34039-0.48371-1.0212-0.48371z"/>
   <path d="m33.425 185.54q-0.54193 0-0.87784 0.30455-0.33143 0.30008-0.46579 0.77931v3.3412h-0.53745v-4.846h0.52402l0.01344 0.75691q0.42996-0.84648 1.3615-0.84648 0.21498 0 0.3583 0.0537l-0.01792 0.48819q-0.2105-0.0314-0.3583-0.0314z"/>
   <path d="m36.614 185.49q-0.56432 0-0.9271 0.35382-0.3583 0.34935-0.51506 0.78826v3.3322h-0.53745v-4.846h0.51506l0.01792 0.81962q0.25081-0.41205 0.6539-0.65838 0.40757-0.25081 0.9271-0.25081 0.7166 0 1.1286 0.40757 0.41205 0.40308 0.41652 1.3481v3.1799h-0.53745v-3.1799q-0.0045-0.73899-0.31351-1.0167-0.30456-0.27768-0.82857-0.27768z"/>
   <path d="m42.043 189.96v-6.5211h1.8229q1.2182 0 1.9975 0.81065 0.78378 0.81066 0.78378 2.1498v0.60015q0 1.3436-0.78378 2.1543-0.7793 0.80617-2.0378 0.80617zm0.55089-6.0508v5.585h1.2317q1.048 0 1.6616-0.68973 0.61359-0.69421 0.61359-1.8049v-0.60911q0-1.1286-0.61359-1.8049t-1.6213-0.67629z"/>
   <path d="m47.632 187.47q0-1.057 0.5912-1.7467 0.5912-0.69421 1.5676-0.69421 0.98085 0 1.5676 0.68077 0.58672 0.67629 0.60015 1.7154v0.1881q0 1.0615-0.5912 1.7512-0.58672 0.68973-1.5676 0.68973-0.98533 0-1.5765-0.68973-0.5912-0.68973-0.5912-1.7512zm0.53745 0.14332q0 0.8017 0.41652 1.3929 0.421 0.59119 1.2137 0.59119 0.78378 0 1.2003-0.59119 0.421-0.5912 0.421-1.3929v-0.14332q0-0.78378-0.421-1.3839-0.421-0.60016-1.2093-0.60016-0.78378 0-1.2048 0.60016-0.41652 0.60015-0.41652 1.3884z"/>
   <path d="m54.861 189.59q0.5061 0 0.90471-0.28664 0.40309-0.29112 0.4434-0.84648h0.51058q-0.03583 0.69421-0.57776 1.1421-0.54193 0.44788-1.2809 0.44788-1.0122 0-1.5362-0.68525-0.52402-0.68973-0.53297-1.7019v-0.21946q0-1.0212 0.52402-1.7198 0.52402-0.69869 1.5362-0.69869 0.7793 0 1.3033 0.46579 0.52849 0.46579 0.56432 1.254h-0.51058q-0.03583-0.58671-0.421-0.92262-0.38517-0.34039-0.93606-0.34039-0.82857 0-1.1779 0.59568-0.34934 0.59567-0.34934 1.366v0.18811q0 0.77482 0.34934 1.3705 0.34934 0.59119 1.1869 0.59119z"/>
   <path d="m60.701 188.73q0-0.30007-0.24633-0.57328-0.24185-0.27768-1.0525-0.44787-0.81066-0.1702-1.2496-0.46579-0.43892-0.2956-0.43892-0.89576 0-0.54193 0.45683-0.9271 0.46131-0.38965 1.2496-0.38965 0.84201 0 1.3168 0.41204 0.47475 0.41205 0.47475 1.0346h-0.54193q0-0.37622-0.32247-0.68077-0.32247-0.30904-0.9271-0.30904-0.62703 0-0.90023 0.26873-0.2732 0.26872-0.2732 0.57328 0 0.31799 0.2329 0.53745 0.23738 0.21946 1.048 0.40757 0.81513 0.18363 1.2272 0.47027 0.48371 0.3359 0.48371 0.95845 0 0.60016-0.48818 0.97637-0.48371 0.37622-1.2988 0.37622-0.92262 0-1.4108-0.43892-0.48818-0.4434-0.48818-1.0122h0.53297q0.03583 0.57328 0.47027 0.78378t0.89575 0.2105q0.60911 0 0.9271-0.26424 0.32247-0.26425 0.32247-0.60464z"/>
   <path d="m66.761 185.55h-1.16v4.4071h-0.53297v-4.4071h-0.80618v-0.43892h0.80618v-0.62254q0.0045-0.72556 0.38517-1.1152 0.38517-0.38966 1.0436-0.38966 0.30456 0 0.57328 0.0761l-0.04031 0.44788q-0.21946-0.0538-0.49266-0.0538-0.43444 0-0.68525 0.27321-0.25081 0.2732-0.25081 0.7793v0.60463h1.16z"/>
   <path d="m67.424 187.47q0-1.057 0.5912-1.7467 0.5912-0.69421 1.5676-0.69421 0.98085 0 1.5676 0.68077 0.58672 0.67629 0.60015 1.7154v0.1881q0 1.0615-0.5912 1.7512-0.58672 0.68973-1.5676 0.68973-0.98533 0-1.5765-0.68973t-0.5912-1.7512zm0.53745 0.14332q0 0.8017 0.41652 1.3929 0.421 0.59119 1.2137 0.59119 0.78378 0 1.2003-0.59119 0.421-0.5912 0.421-1.3929v-0.14332q0-0.78378-0.421-1.3839-0.421-0.60016-1.2093-0.60016-0.78378 0-1.2048 0.60016-0.41652 0.60015-0.41652 1.3884z"/>
   <path d="m74.738 185.54q-0.54193 0-0.87784 0.30455-0.33143 0.30008-0.46579 0.77931v3.3412h-0.53745v-4.846h0.52402l0.01344 0.75691q0.42996-0.84648 1.3615-0.84648 0.21498 0 0.3583 0.0537l-0.01792 0.48819q-0.2105-0.0314-0.3583-0.0314z"/>
   <path d="m81.447 189.19 2.4096-5.7507h0.73452v6.5211h-0.55089v-2.844l0.04927-2.9157-2.432 5.7597h-0.42548l-2.4185-5.7373 0.04927 2.8754v2.8619h-0.55089v-6.5211h0.72556z"/>
   <path d="m85.827 187.47q0-1.057 0.5912-1.7467 0.5912-0.69421 1.5676-0.69421 0.98085 0 1.5676 0.68077 0.58672 0.67629 0.60015 1.7154v0.1881q0 1.0615-0.5912 1.7512-0.58672 0.68973-1.5676 0.68973-0.98533 0-1.5765-0.68973t-0.5912-1.7512zm0.53745 0.14332q0 0.8017 0.41652 1.3929 0.421 0.59119 1.2137 0.59119 0.78378 0 1.2003-0.59119 0.421-0.5912 0.421-1.3929v-0.14332q0-0.78378-0.421-1.3839-0.421-0.60016-1.2093-0.60016-0.78378 0-1.2048 0.60016-0.41652 0.60015-0.41652 1.3884z"/>
   <path d="m94.449 189.96-0.02687-0.64942q-0.51058 0.739-1.5138 0.739-0.85544 0-1.3571-0.68973-0.50162-0.68973-0.50162-1.7736v-0.0941q0-1.1286 0.50162-1.796 0.50162-0.67181 1.366-0.67181 0.98533 0 1.4959 0.76587v-2.7096h0.53745v6.8794zm-2.8619-2.3737q0 0.84648 0.34486 1.4242 0.34934 0.57329 1.0794 0.57329 0.54641 0 0.88232-0.24634 0.34038-0.25081 0.51954-0.62702v-2.2886q-0.15676-0.36726-0.48371-0.64942-0.32695-0.28216-0.90919-0.28216-0.739 0-1.0883 0.57776-0.34486 0.57776-0.34486 1.4242z"/>
   <path d="m99.953 189.19q-0.23737 0.35382-0.6539 0.60911-0.41652 0.25081-1.0659 0.25081-0.94502 0-1.5586-0.66734-0.61359-0.66733-0.61359-1.7109v-0.19259q0-1.1197 0.62255-1.787 0.62703-0.66733 1.4556-0.66733 0.92262 0 1.4198 0.62703 0.49714 0.62254 0.49714 1.59v0.32695h-3.4576v0.10302q0 0.80169 0.45683 1.366 0.46131 0.55984 1.2003 0.55984 0.85544 0 1.3571-0.66285zm-1.8139-3.7084q-0.61359 0-1.0256 0.44788-0.40757 0.44787-0.49266 1.1824h2.8978v-0.0582q-0.01344-0.60911-0.3583-1.0883-0.34039-0.48371-1.0212-0.48371z"/>
   <path d="m102.98 185.54q-0.54193 0-0.87784 0.30455-0.33142 0.30008-0.46579 0.77931v3.3412h-0.53745v-4.846h0.52402l0.0134 0.75691q0.42996-0.84648 1.3616-0.84648 0.21498 0 0.3583 0.0537l-0.0179 0.48819q-0.2105-0.0314-0.3583-0.0314z"/>
   <path d="m106.17 185.49q-0.56432 0-0.9271 0.35382-0.3583 0.34935-0.51506 0.78826v3.3322h-0.53745v-4.846h0.51506l0.0179 0.81962q0.25081-0.41205 0.6539-0.65838 0.40757-0.25081 0.9271-0.25081 0.7166 0 1.1286 0.40757 0.41205 0.40308 0.41653 1.3481v3.1799h-0.53746v-3.1799q-4e-3 -0.73899-0.31351-1.0167-0.30455-0.27768-0.82857-0.27768z"/>
   <path d="m115.66 187.93h0.55089q-0.10301 0.99428-0.71212 1.5586-0.60911 0.56433-1.684 0.56433-1.1062 0-1.7736-0.79722-0.66733-0.79722-0.68077-2.0961v-0.8644q0-1.3212 0.67182-2.1319 0.67629-0.81066 1.8184-0.81066 1.0436 0 1.6482 0.56433 0.60911 0.55984 0.71212 1.5631h-0.55089q-0.0985-0.78826-0.53297-1.2227-0.43444-0.43444-1.2764-0.43444-0.90471 0-1.4242 0.68077-0.51506 0.6763-0.51506 1.7826v0.82409q0 1.0794 0.49714 1.7781t1.4063 0.69869q0.8644 0 1.3033-0.41653 0.43892-0.41652 0.54193-1.2406z"/>
   <path d="m121.54 187.15h-1.9886v2.1588h-0.53745v-2.1588h-1.9438v-0.5061h1.9438v-2.0826h0.53745v2.0826h1.9886z"/>
   <path d="m126.71 187.15h-1.9886v2.1588h-0.53745v-2.1588h-1.9438v-0.5061h1.9438v-2.0826h0.53745v2.0826h1.9886z"/>
  </g>
  <path transform="rotate(180 .38125 -.88563)" d="m-2.4505-68.41a64.522 64.522 0 0 1-64.522 64.522 64.522 64.522 0 0 1-64.522-64.522 64.522 64.522 0 0 1 64.522-64.522 64.522 64.522 0 0 1 64.522 64.522z" clip-path="url(#clipPath1773-3)" stop-color="#000000" stroke-width=".33454"/>
 </g>
</svg>
