<?xml version="1.0" encoding="UTF-8"?>
<!-- Created with Inkscape (http://www.inkscape.org/) -->
<svg width="150" height="57" version="1.1" viewBox="0 0 39.687 15.081" xmlns="http://www.w3.org/2000/svg">
 <defs>
  <clipPath id="clipPath1773-3">
   <path d="m-21.384-57.438a32.41 17.508 59.936 0 0 6.396-2.5445 32.41 17.508 59.936 0 0-4.7408-38.82 32.41 17.508 59.936 0 0-31.048-14.848 32.41 17.508 59.936 0 0 4.7408 38.82 32.41 17.508 59.936 0 0 24.652 17.393zm-7.1334-12.972a18.792 10.983 61.133 0 1-15.079-11.167 18.792 10.983 61.133 0 1-0.39067-22.291 18.792 10.983 61.133 0 1 18.695 10.052 18.792 10.983 61.133 0 1 0.39067 22.291 18.792 10.983 61.133 0 1-3.6158 1.1157zm-83.27 12.609a17.323 32.271 29.505 0 0 24.317-17.371 17.323 32.271 29.505 0 0 4.6762-38.772 17.323 32.271 29.505 0 0-30.626 14.83 17.323 32.271 29.505 0 0-4.6762 38.772 17.323 32.271 29.505 0 0 6.3092 2.5409zm7.0368-12.956a10.864 18.716 28.261 0 1-3.5667-1.1136 10.864 18.716 28.261 0 1 0.38499-22.263 10.864 18.716 28.261 0 1 18.441-10.039 10.864 18.716 28.261 0 1-0.3855 22.263 10.864 18.716 28.261 0 1-14.874 11.153z" display="none" fill="#fff"/>
   <path class="powerclip" d="m-136.49-137.93h139.04v139.04h-139.04zm115.11 80.494a32.41 17.508 59.936 0 0 6.396-2.5445 32.41 17.508 59.936 0 0-4.7408-38.82 32.41 17.508 59.936 0 0-31.048-14.848 32.41 17.508 59.936 0 0 4.7408 38.82 32.41 17.508 59.936 0 0 24.652 17.393zm-7.1334-12.972a18.792 10.983 61.133 0 0 3.6158-1.1157 18.792 10.983 61.133 0 0-0.39067-22.291 18.792 10.983 61.133 0 0-18.695-10.052 18.792 10.983 61.133 0 0 0.39067 22.291 18.792 10.983 61.133 0 0 15.079 11.167zm-83.27 12.609a17.323 32.271 29.505 0 0 24.317-17.371 17.323 32.271 29.505 0 0 4.6762-38.772 17.323 32.271 29.505 0 0-30.626 14.83 17.323 32.271 29.505 0 0-4.6762 38.772 17.323 32.271 29.505 0 0 6.3092 2.5409zm7.0368-12.956a10.864 18.716 28.261 0 0 14.874-11.153 10.864 18.716 28.261 0 0 0.3855-22.263 10.864 18.716 28.261 0 0-18.441 10.039 10.864 18.716 28.261 0 0-0.38499 22.263 10.864 18.716 28.261 0 0 3.5667 1.1136z" fill="#fff"/>
  </clipPath>
 </defs>
 <g>
  <rect y="-3.0488e-7" width="39.688" height="15.081" fill="#ef5552" stop-color="#000000"/>
  <g transform="matrix(.17245 0 0 .17245 12.391 -19.113)" fill="#fff" stop-color="#000000" stroke-width=".52918" aria-label="Doxide">
   <path d="m7.1589 170.23v-30.097h8.4131q5.6225 0 9.2192 3.7414 3.6174 3.7414 3.6174 9.922v2.7699q0 6.2013-3.6174 9.9427-3.5967 3.7208-9.4053 3.7208zm2.5425-27.926v25.777h5.6845q4.837 0 7.6689-3.1833 2.8319-3.204 2.8319-8.3304v-2.8112q0-5.2091-2.8319-8.3304t-7.4829-3.1213z"/>
   <path d="m32.956 158.71q0-4.8783 2.7286-8.0616 2.7286-3.204 7.2348-3.204 4.5269 0 7.2348 3.142 2.7079 3.1213 2.7699 7.917v0.86818q0 4.899-2.7286 8.0823-2.7079 3.1833-7.2348 3.1833-4.5476 0-7.2762-3.1833t-2.7286-8.0823zm2.4805 0.66147q0 3.7001 1.9224 6.4286 1.9431 2.7286 5.6018 2.7286 3.6174 0 5.5398-2.7286 1.9431-2.7286 1.9431-6.4286v-0.66147q0-3.6174-1.9431-6.3873t-5.5811-2.7699q-3.6174 0-5.5605 2.7699-1.9224 2.7699-1.9224 6.408z"/>
   <path d="m58.609 147.86 6.0152 9.0538 6.0566-9.0538h2.9353l-7.5862 10.976 7.8963 11.39h-2.8939l-6.3873-9.4673-6.346 9.4673h-2.9353l7.917-11.39-7.5862-10.976z"/>
   <path d="m78.06 141.39q0-1.6743 1.695-1.6743 1.7157 0 1.7157 1.6743 0 1.633-1.7157 1.633-1.695 0-1.695-1.633zm2.9146 6.47v22.366h-2.4598v-22.366z"/>
   <path d="m102.43 170.23-0.12402-2.9973q-2.3565 3.4107-6.9868 3.4107-3.9481 0-6.2633-3.1833-2.3151-3.1833-2.3151-8.1857v-0.43409q0-5.2091 2.3151-8.289 2.3151-3.1006 6.3046-3.1006 4.5476 0 6.9041 3.5347v-12.506h2.4805v31.75zm-13.209-10.956q0 3.9068 1.5917 6.5733 1.6123 2.6459 4.9817 2.6459 2.5218 0 4.0722-1.1369 1.571-1.1576 2.3978-2.8939v-10.563q-0.72348-1.695-2.2324-2.9973-1.509-1.3023-4.1962-1.3023-3.4107 0-5.023 2.6665-1.5917 2.6666-1.5917 6.5734z"/>
   <path d="m127.84 166.67q-1.0956 1.633-3.018 2.8112-1.9224 1.1576-4.9197 1.1576-4.3616 0-7.1935-3.08t-2.8319-7.8963v-0.88885q0-5.1677 2.8732-8.2477 2.8939-3.08 6.718-3.08 4.2582 0 6.5527 2.8939 2.2945 2.8732 2.2945 7.3382v1.509h-15.958v0.47543q0 3.7001 2.1084 6.3046 2.1291 2.5839 5.5398 2.5839 3.9481 0 6.2633-3.0593zm-8.3717-17.116q-2.8319 0-4.7336 2.0671-1.881 2.0671-2.2738 5.4571h13.374v-0.26872q-0.062-2.8112-1.6537-5.023-1.571-2.2325-4.713-2.2325z"/>
  </g>
  <path transform="matrix(-.051794 0 0 -.051794 3.9345 3.9974)" d="m-2.4505-68.41a64.522 64.522 0 0 1-64.522 64.522 64.522 64.522 0 0 1-64.522-64.522 64.522 64.522 0 0 1 64.522-64.522 64.522 64.522 0 0 1 64.522 64.522z" clip-path="url(#clipPath1773-3)" fill="#fffafa" stop-color="#000000" stroke-width=".33454"/>
 </g>
</svg>
